<?xml version="1.0" encoding="UTF-8" standalone="no"?>
<svg
   xmlns:dc="http://purl.org/dc/elements/1.1/"
   xmlns:cc="http://creativecommons.org/ns#"
   xmlns:rdf="http://www.w3.org/1999/02/22-rdf-syntax-ns#"
   xmlns:svg="http://www.w3.org/2000/svg"
   xmlns="http://www.w3.org/2000/svg"
   xmlns:sodipodi="http://sodipodi.sourceforge.net/DTD/sodipodi-0.dtd"
   xmlns:inkscape="http://www.inkscape.org/namespaces/inkscape"
   viewBox="0 0 45 45"
   style="enable-background:new 0 0 45 45;"
   xml:space="preserve"
   version="1.1"
   id="svg2"
   sodipodi:docname="Logo.svg"
   inkscape:version="1.0.2 (e86c8708, 2021-01-15)"><sodipodi:namedview
     pagecolor="#ffffff"
     bordercolor="#666666"
     borderopacity="1"
     objecttolerance="10"
     gridtolerance="10"
     guidetolerance="10"
     inkscape:pageopacity="0"
     inkscape:pageshadow="2"
     inkscape:window-width="1588"
     inkscape:window-height="973"
     id="namedview92"
     showgrid="false"
     inkscape:zoom="11.687168"
     inkscape:cx="16.169238"
     inkscape:cy="19.41409"
     inkscape:window-x="0"
     inkscape:window-y="25"
     inkscape:window-maximized="0"
     inkscape:current-layer="svg2" /><metadata
     id="metadata8"><rdf:RDF><cc:Work
         rdf:about=""><dc:format>image/svg+xml</dc:format><dc:type
           rdf:resource="http://purl.org/dc/dcmitype/StillImage" /><dc:title></dc:title></cc:Work></rdf:RDF></metadata><defs
     id="defs6"><clipPath
       id="clipPath16"
       clipPathUnits="userSpaceOnUse"><path
         id="path18"
         d="M 0,36 36,36 36,0 0,0 0,36 Z" /></clipPath></defs><g
     transform="matrix(1.25,0,0,-1.25,0,45)"
     id="g10"><g
       id="g12"><g
         clip-path="url(#clipPath16)"
         id="g14"><g
           transform="translate(2,20)"
           id="g20"><path
             id="path22"
             style="fill:#ffcc4d;fill-opacity:1;fill-rule:nonzero;stroke:none"
             d="m 0,0 c 0,-8.837 7.164,-16 16,-16 8.837,0 16,7.163 16,16 C 32,8.836 24.837,16 16,16 7.164,16 0,8.836 0,0" /></g><g
           transform="translate(15.4063,25.5)"
           id="g24"><path
             id="path26"
             style="fill:#664500;fill-opacity:1;fill-rule:nonzero;stroke:none"
             d="m 0,0 c 0,-1.381 -0.896,-2.5 -2,-2.5 -1.104,0 -2,1.119 -2,2.5 0,1.38 0.896,2.5 2,2.5 1.104,0 2,-1.12 2,-2.5" /></g><g
           transform="translate(26,24.5)"
           id="g28"><path
             id="path30"
             style="fill:#664500;fill-opacity:1;fill-rule:nonzero;stroke:none"
             d="m 0,0 c 0,-1.381 -0.895,-2.5 -2,-2.5 -1.104,0 -2,1.119 -2,2.5 0,1.38 0.896,2.5 2,2.5 1.105,0 2,-1.12 2,-2.5" /></g><g
           transform="translate(9.6709,29.667)"
           id="g32"><path
             id="path34"
             style="fill:#664500;fill-opacity:1;fill-rule:nonzero;stroke:none"
             d="M 0,0 C -0.164,0.087 -0.303,0.223 -0.391,0.398 -0.607,0.827 -0.431,1.325 0.002,1.511 4.268,3.341 7.701,1.554 7.845,1.477 8.278,1.246 8.453,0.729 8.236,0.323 8.02,-0.082 7.496,-0.223 7.063,0.005 6.94,0.069 4.231,1.437 0.785,-0.042 0.528,-0.151 0.238,-0.127 0,0" /></g><g
           transform="translate(14.7427,16.4277)"
           id="g36"><path
             id="path38"
             style="fill:#664500;fill-opacity:1;fill-rule:nonzero;stroke:none"
             d="M 0,0 C -0.136,0.127 -0.236,0.293 -0.276,0.486 -0.375,0.955 -0.078,1.392 0.389,1.46 4.981,2.138 7.841,-0.469 7.962,-0.58 8.322,-0.914 8.357,-1.457 8.044,-1.795 7.732,-2.131 7.189,-2.133 6.83,-1.801 6.726,-1.709 4.458,0.307 0.748,-0.24 0.471,-0.281 0.197,-0.184 0,0" /></g><g
           transform="translate(20.4307,25.917)"
           id="g40"><path
             id="path42"
             style="fill:#664500;fill-opacity:1;fill-rule:nonzero;stroke:none"
             d="M 0,0 C -0.156,0.098 -0.286,0.243 -0.362,0.424 -0.549,0.866 -0.339,1.352 0.105,1.508 4.486,3.044 7.79,1.028 7.929,0.941 8.344,0.681 8.483,0.154 8.24,-0.237 7.998,-0.627 7.464,-0.732 7.049,-0.475 6.929,-0.402 4.321,1.146 0.782,-0.095 0.518,-0.187 0.23,-0.143 0,0" /></g><g
           transform="translate(17.2764,0.8682)"
           id="g44"><path
             id="path46"
             style="fill:#f4900c;fill-opacity:1;fill-rule:nonzero;stroke:none"
             d="m 0,0 c 0,0 1.265,0.411 1.429,1.352 0.173,0.971 -0.624,1.167 -0.624,1.167 0,0 1.041,0.208 1.172,1.376 0.123,1.1 -0.862,1.363 -0.862,1.363 0,0 0.97,0.4 1.016,1.539 0.038,0.959 -0.995,1.428 -0.995,1.428 0,0 5.038,1.22 5.555,1.34 0.516,0.121 1.321,0.616 1.07,1.695 -0.249,1.08 -1.204,1.118 -1.698,1.003 -0.494,-0.116 -6.744,-1.567 -8.9,-2.069 -0.23,-0.053 -1.308,-0.302 -1.439,-0.334 -0.54,-0.127 -0.785,0.111 -0.405,0.512 0.509,0.536 0.833,1.129 0.947,2.113 0.119,1.036 -0.232,2.314 -0.433,2.809 -0.374,0.921 -1.005,1.649 -1.734,1.899 -1.138,0.39 -1.946,-0.321 -1.542,-1.561 0.604,-1.855 0.209,-3.375 -0.833,-4.293 -2.449,-2.157 -3.589,-3.695 -2.83,-6.973 0.827,-3.575 4.377,-5.876 7.952,-5.048 C -2.965,-0.64 0,0 0,0" /></g></g></g></g><path
     style="fill:#1ed760;fill-opacity:1;stroke-width:0.0511511"
     d="M 22.005153,-0.06804285 C 19.62723,-0.05622896 17.261851,0.46375057 15.053143,1.3319673 10.459234,3.1563631 6.5937648,6.7341284 4.4393518,11.185192 c -1.3576154,2.777517 -2.0863095,5.871001 -2.0135605,8.967054 -0.034497,4.422052 1.5538746,8.813483 4.2841688,12.277974 0.3798314,0.451626 0.7315858,0.938817 1.1657866,1.338122 0.2370887,-0.0069 0.2660254,-0.345539 0.3934245,-0.501721 0.8350998,-1.53069 2.2441098,-2.613562 3.4344198,-3.85272 0.808408,-0.860706 1.107284,-2.089491 1.033654,-3.245488 0.04042,-0.90237 -0.425922,-1.72202 -0.449212,-2.613117 -0.02278,-0.598767 0.510084,-1.191575 1.120129,-1.103368 0.450302,-0.05526 0.881531,0.08878 1.255402,0.332704 1.177357,0.730045 1.719226,2.093736 1.992413,3.387694 0.199229,0.964674 0.233475,1.986256 -0.0043,2.952996 -0.173093,0.747317 -0.653717,1.351957 -1.121747,1.940301 -0.202514,0.188315 -0.160198,0.556064 0.126579,0.627401 0.446679,0.126436 0.896941,-0.132327 1.339822,-0.178882 4.135501,-0.904355 8.246518,-1.938797 12.386868,-2.807766 0.591471,-0.150373 1.24621,0.09188 1.574197,0.616412 0.300421,0.471835 0.331405,1.105178 0.14636,1.624848 -0.279742,0.590651 -0.926948,0.849053 -1.528112,0.977742 -2.184832,0.547301 -4.384624,1.040015 -6.565958,1.598098 -0.174804,0.192679 0.183668,0.337598 0.30441,0.436183 0.653932,0.404035 0.993219,1.250826 0.730802,1.97941 -0.155539,0.585818 -0.61253,1.026747 -1.118232,1.329231 -0.128856,0.238427 0.276424,0.226899 0.405113,0.370745 0.461682,0.299765 0.67622,0.859219 0.599427,1.394768 -0.0081,0.350709 -0.175144,0.667985 -0.317396,0.969374 0.192463,0.163927 0.508298,-0.01515 0.74866,0.0067 2.989039,-0.302605 5.933694,-1.202904 8.497399,-2.786616 4.047689,-2.422032 7.185918,-6.314634 8.675293,-10.791976 0.686472,-2.033346 1.082166,-4.174702 1.030005,-6.325744 0.03999,-1.347613 -0.07661,-2.69519 -0.355659,-4.014446 C 41.122023,10.392112 37.394994,5.2713472 32.317178,2.4681693 29.874738,1.0932494 27.138447,0.22655195 24.344212,-0.01017736 23.565488,-0.05533277 22.785107,-0.07037236 22.005153,-0.06804285 Z M 17.064371,5.0965249 c 1.619641,0.012714 3.268555,0.3329924 4.742571,1.0453018 0.587161,0.2335914 0.787371,1.0700386 0.340575,1.5256429 -0.370834,0.4086168 -0.968781,0.2952485 -1.405341,0.069452 C 18.988547,6.9816636 16.997593,6.8865143 15.135413,7.2281891 14.32467,7.3617463 13.576461,7.7152693 12.791752,7.9351139 12.216539,8.0392658 11.570463,7.5638583 11.604985,6.9531514 11.528789,6.4642401 11.97404,6.1601173 12.37475,6.0139488 13.862988,5.4038415 15.460946,5.0963837 17.064371,5.0965249 Z m -0.349766,5.0060191 c 1.147862,-0.01403 2.040527,0.992863 2.318786,2.035556 0.217758,0.929057 0.157012,2.004809 -0.385584,2.832926 -0.412262,0.68104 -1.15573,1.249066 -1.989948,1.153267 -0.896516,0.0085 -1.601159,-0.717499 -1.971916,-1.468997 -0.500547,-1.129895 -0.429548,-2.542265 0.291921,-3.566094 0.406598,-0.548379 1.034349,-0.981574 1.736741,-0.986658 z m 13.070717,0.02438 c 1.889658,-0.0715 3.79119,0.423238 5.454691,1.289468 0.581338,0.232275 0.875789,1.049775 0.424594,1.540629 -0.344358,0.412563 -0.969894,0.389589 -1.381095,0.09576 -0.732985,-0.367288 -1.518172,-0.651973 -2.323767,-0.799986 -0.228193,0.128947 0.03672,0.399193 0.09381,0.567957 0.68842,1.392913 0.366186,3.300466 -0.932909,4.224665 -0.695242,0.511847 -1.706535,0.46533 -2.362972,-0.0915 -0.784059,-0.618412 -1.214312,-1.639887 -1.121036,-2.633698 -0.06453,-0.697866 0.182619,-1.388344 0.57119,-1.969619 0.0031,-0.298926 -0.40024,-0.04143 -0.578748,-0.03916 -0.517373,0.09434 -1.004712,0.335884 -1.526042,0.372544 -0.684093,-0.01809 -1.247201,-0.818999 -0.894545,-1.445619 0.335341,-0.537062 1.044461,-0.58042 1.593489,-0.760726 0.966963,-0.273696 1.975142,-0.366208 2.983339,-0.350712 z m -9.009095,12.468791 c 2.682689,-0.0016 5.396851,0.886751 7.471553,2.614939 0.499584,0.359841 0.554523,1.251111 -0.02237,1.567067 -0.390684,0.272923 -0.897947,0.134492 -1.226828,-0.164742 -1.685323,-1.298279 -3.798453,-2.067556 -5.935731,-2.025066 -0.687292,-0.04486 -1.370892,0.09177 -2.055637,0.06304 -0.524125,-0.08062 -0.933657,-0.657993 -0.841097,-1.171881 0.07178,-0.459274 0.50816,-0.755477 0.954896,-0.769157 0.551117,-0.0798 1.101439,-0.112138 1.655212,-0.1142 z"
     id="path983" /><path
     style="fill:#19b560;fill-opacity:1;stroke-width:0.0511511"
     d="m 13.395575,22.366831 c -0.522749,-0.05569 -0.992502,0.333616 -1.140111,0.81682 -0.153028,1.051025 0.415823,2.048287 0.391907,3.090727 0.0393,1.149732 -0.27533,2.385668 -1.15885,3.18306 -1.025763,1.119222 -2.2103253,2.110751 -3.0658965,3.375098 -0.201256,0.33978 -0.3854469,0.691549 -0.6340944,0.997047 -0.5127293,1.128068 -0.4861368,2.420556 -0.3463929,3.627399 0.274642,2.329748 1.5034693,4.544165 3.3992308,5.940359 1.666579,1.239914 3.807003,1.859739 5.877233,1.610367 1.355647,-0.199213 2.68893,-0.536028 4.028868,-0.821075 0.860648,-0.182053 1.794226,-0.435591 2.345121,-1.179581 0.545957,-0.584407 0.577491,-1.684603 -0.128753,-2.155574 -0.250692,-0.106873 0.201655,-0.169816 0.291422,-0.286427 0.285077,-0.174637 0.529984,-0.433664 0.558866,-0.780155 0.2985,-0.658184 0.32264,-1.534966 -0.242168,-2.061431 -0.140597,-0.176135 -0.417292,-0.238213 -0.540385,-0.39812 0.669717,-0.46038 1.283064,-1.209743 1.170483,-2.07362 -0.05206,-0.646536 -0.499399,-1.183332 -1.032714,-1.510157 -0.237633,-0.148734 0.05323,-0.165273 0.171336,-0.201208 2.26347,-0.586731 4.561584,-1.066638 6.812894,-1.708069 0.61512,-0.189316 1.13369,-0.73784 1.131519,-1.406157 0.105486,-0.821123 -0.445403,-1.725594 -1.303255,-1.830551 -0.735116,-0.02663 -1.449642,0.231469 -2.168457,0.355419 -3.910895,0.863398 -7.802823,1.821991 -11.717582,2.658802 -0.212768,0.03694 -0.673149,0.02325 -0.589337,-0.292221 0.465144,-0.746984 1.102011,-1.427815 1.263493,-2.32538 0.289135,-1.695614 0.04422,-3.525748 -0.846623,-5.014255 -0.536818,-0.863734 -1.432683,-1.710363 -2.527754,-1.611117 z"
     id="path985" /><path
     style="fill:#191414;fill-opacity:1;stroke-width:0.0511511"
     d="m 29.604895,10.053491 c -1.367966,-0.01403 -2.750983,0.206657 -4.018363,0.728104 -0.538949,0.240853 -0.757324,0.992436 -0.377739,1.462803 0.283225,0.488218 0.917874,0.612176 1.422142,0.42949 0.481146,-0.11718 0.977879,-0.293598 1.45541,-0.343871 -0.343879,0.623768 -0.601182,1.317564 -0.539978,2.042049 -0.05979,0.858817 0.240588,1.727107 0.843257,2.346064 0.581941,0.669774 1.587899,0.998857 2.415724,0.600522 1.278367,-0.592568 1.829862,-2.14441 1.646927,-3.47638 -0.03904,-0.529812 -0.326969,-0.987362 -0.489532,-1.478488 0.901009,0.117599 1.721639,0.547763 2.549265,0.901439 0.531105,0.218137 1.265543,4.21e-4 1.415348,-0.601725 0.158325,-0.575287 -0.203454,-1.193896 -0.761008,-1.383395 -1.526414,-0.768086 -3.215118,-1.24854 -4.933247,-1.224083 -0.209383,-0.0037 -0.418801,-0.0035 -0.628206,-0.0025 z"
     id="path987" /><path
     style="fill:#191414;fill-opacity:1;stroke-width:0.0511511"
     d="m 16.674544,10.014028 c -1.177819,0.05373 -2.04654,1.124068 -2.302002,2.204595 -0.212564,1.109657 -0.05778,2.369413 0.739294,3.22462 0.459997,0.520138 1.145003,0.868745 1.852131,0.765769 1.12329,-0.08928 1.88982,-1.131397 2.179219,-2.140056 0.08081,-0.610157 0.0643,-1.237464 0.008,-1.849434 -0.281851,-1.138282 -1.226357,-2.2212039 -2.476634,-2.205494 z"
     id="path989" /><path
     style="fill:#191414;fill-opacity:1;stroke-width:0.0511511"
     d="m 16.87705,5.0139037 c -1.626131,0.031215 -3.261744,0.3537313 -4.749364,1.0175282 -0.321073,0.1791442 -0.6846,0.4669038 -0.601326,0.8833564 -0.08701,0.7464358 0.792705,1.3355325 1.465936,1.0492084 1.132472,-0.3640796 2.27058,-0.7688887 3.476745,-0.8057275 1.52907,-0.1008922 3.063102,0.1531974 4.468652,0.7501165 0.467683,0.1946065 1.119862,0.1675512 1.383758,-0.3311301 0.377682,-0.5229293 0.06647,-1.2989823 -0.507616,-1.5264422 -1.52187,-0.7429788 -3.25132,-1.0485051 -4.936785,-1.0369097 z"
     id="path991" /><path
     style="fill:#191414;fill-opacity:1;stroke-width:0.0511511"
     d="m 20.693505,22.516388 c -0.707241,0.04226 -1.462294,-0.02618 -2.124071,0.267345 -0.671864,0.335527 -0.611646,1.353414 -0.03896,1.754224 0.306374,0.309945 0.782808,0.106373 1.169682,0.165269 1.323694,0.02324 2.676343,-0.102465 3.944634,0.324564 1.256991,0.359962 2.43606,0.989324 3.477079,1.785494 0.458392,0.34947 1.184277,0.232431 1.467299,-0.281231 0.315097,-0.506122 0.06755,-1.185932 -0.412906,-1.492574 -2.104092,-1.689173 -4.793775,-2.552259 -7.482754,-2.523091 z"
     id="path993" /></svg>
